<?xml version="1.0" encoding="UTF-8" standalone="no"?>
<svg
   xmlns:dc="http://purl.org/dc/elements/1.1/"
   xmlns:cc="http://creativecommons.org/ns#"
   xmlns:rdf="http://www.w3.org/1999/02/22-rdf-syntax-ns#"
   xmlns:svg="http://www.w3.org/2000/svg"
   xmlns="http://www.w3.org/2000/svg"
   xmlns:sodipodi="http://sodipodi.sourceforge.net/DTD/sodipodi-0.dtd"
   xmlns:inkscape="http://www.inkscape.org/namespaces/inkscape"
   viewBox="0 0 512 512"
   height="512"
   width="512"
   version="1.1"
   id="svg6"
   sodipodi:docname="zoom.svg"
   inkscape:version="0.92.1 r">
  <metadata
     id="metadata12">
    <rdf:RDF>
      <cc:Work
         rdf:about="">
        <dc:format>image/svg+xml</dc:format>
        <dc:type
           rdf:resource="http://purl.org/dc/dcmitype/StillImage" />
        <dc:title></dc:title>
      </cc:Work>
    </rdf:RDF>
  </metadata>
  <defs
     id="defs10" />
  <sodipodi:namedview
     pagecolor="#ffffff"
     bordercolor="#666666"
     borderopacity="1"
     objecttolerance="10"
     gridtolerance="10"
     guidetolerance="10"
     inkscape:pageopacity="0"
     inkscape:pageshadow="2"
     inkscape:window-width="800"
     inkscape:window-height="480"
     id="namedview8"
     showgrid="false"
     inkscape:zoom="0.4609375"
     inkscape:cx="256"
     inkscape:cy="254.91525"
     inkscape:window-x="2424"
     inkscape:window-y="232"
     inkscape:window-maximized="0"
     inkscape:current-layer="svg6" />
  <path
     d="M471.95 253.05c0 120.9-98.01 218.9-218.9 218.9-120.9 0-218.9-98.01-218.9-218.9 0-120.9 98.01-218.9 218.9-218.9 120.9 0 218.9 98.01 218.9 218.9"
     fill="#149cdf"
     fill-rule="evenodd"
     id="path2" />
  <path
     d="M106.747 299.386c-6.13-15.27-3.933-49.51-3.98-74.085-.047-24.815.15-74.45.15-74.45l98.713-1.44c106.082-1.548 124.485-.83 133.846 31.263l5.935 20.35s19.33-12.948 34.618-24.784c80.156-62.055 77.588 181.59 3.447 129.737l-37.875-24.81-1.79 24.8-1.792 24.797-100.423 1.59s-84.057 1.782-99.242-3.133c-15.185-4.912-26.92-18.84-31.606-29.833zm222.565-44.334c0-63.405-.766-67.773-14.245-81.253-13.94-13.943-16.236-14.247-107.37-14.247h-93.124v67.007c0 63.406.766 67.773 14.246 81.253 13.94 13.94 16.234 14.246 107.367 14.246h93.124zm77.245-74.602c-4.125-5.683-12.772-5.87-23.76 2.155-12.94 9.453-38.806 28.38-38.806 28.38-.15 23.112.06 38.684.628 59.642 0 0 26.35 19.163 36.512 26.085 7.93 5.404 9.384 8.686 24.445 5.483 15.06-3.202 18.01-99.607.982-121.745z"
     fill="#ffffff"
     id="path4" />
</svg>
