<?xml version="1.0" encoding="UTF-8" standalone="no"?>
<svg
   xmlns:dc="http://purl.org/dc/elements/1.1/"
   xmlns:cc="http://creativecommons.org/ns#"
   xmlns:rdf="http://www.w3.org/1999/02/22-rdf-syntax-ns#"
   xmlns:svg="http://www.w3.org/2000/svg"
   xmlns="http://www.w3.org/2000/svg"
   xmlns:sodipodi="http://sodipodi.sourceforge.net/DTD/sodipodi-0.dtd"
   xmlns:inkscape="http://www.inkscape.org/namespaces/inkscape"
   height="512"
   viewBox="0 0 512 512"
   width="512"
   id="svg2"
   version="1.1"
   inkscape:version="0.91 r13725"
   sodipodi:docname="go-home.svg">
  <metadata
     id="metadata68">
    <rdf:RDF>
      <cc:Work
         rdf:about="">
        <dc:format>image/svg+xml</dc:format>
        <dc:type
           rdf:resource="http://purl.org/dc/dcmitype/StillImage" />
      </cc:Work>
    </rdf:RDF>
  </metadata>
  <defs
     id="defs66" />
  <sodipodi:namedview
     pagecolor="#ffffff"
     bordercolor="#666666"
     borderopacity="1"
     objecttolerance="10"
     gridtolerance="10"
     guidetolerance="10"
     inkscape:pageopacity="0"
     inkscape:pageshadow="2"
     inkscape:window-width="640"
     inkscape:window-height="480"
     id="namedview64"
     showgrid="false"
     inkscape:zoom="0.4609375"
     inkscape:cx="256"
     inkscape:cy="256"
     inkscape:current-layer="svg2" />
  <text
     x="729.64"
     y="231.36"
     id="text16">
    <tspan
       x="729.64"
       y="231.36"
       id="tspan18" />
  </text>
  <text
     transform="scale(4.0128 .2492)"
     x="378.91"
     y="579.26"
     id="text20" />
  <text
     x="1310.91"
     y="151.36"
     id="text22">
    <tspan
       x="1310.91"
       y="151.36"
       id="tspan24" />
  </text>
  <text
     transform="scale(4.0128 .2492)"
     x="523.76"
     y="258.22"
     id="text26" />
  <text
     x="239.33"
     y="-29.9"
     id="text28">
    <tspan
       x="239.33"
       y="-29.9"
       id="tspan30" />
  </text>
  <text
     transform="scale(4.0128 .2492)"
     x="256.72"
     y="-469.13"
     id="text32" />
  <text
     x="1337.38"
     y="-246.37"
     id="text34">
    <tspan
       x="1337.38"
       y="-246.37"
       id="tspan36" />
  </text>
  <text
     transform="scale(4.0128 .2492)"
     x="530.36"
     y="-1337.8"
     id="text38" />
  <text
     x="1918.65"
     y="-326.37"
     id="text40">
    <tspan
       x="1918.65"
       y="-326.37"
       id="tspan42" />
  </text>
  <text
     transform="scale(4.0128 .2492)"
     x="675.21"
     y="-1658.83"
     id="text44" />
  <text
     x="1529.53"
     y="-798.77"
     id="text46">
    <tspan
       x="1529.53"
       y="-798.77"
       id="tspan48" />
  </text>
  <text
     transform="scale(4.0128 .2492)"
     x="578.24"
     y="-3554.48"
     id="text50" />
  <text
     x="2110.79"
     y="-878.78"
     id="text52">
    <tspan
       x="2110.79"
       y="-878.78"
       id="tspan54" />
  </text>
  <text
     transform="scale(4.0128 .2492)"
     x="723.09"
     y="-3875.52"
     id="text56" />
  <text
     x="277.99"
     y="535.94"
     id="text58">
    <tspan
       x="277.99"
       y="535.94"
       id="tspan60" />
  </text>
  <path
     d="M 239.95832,127.74437 C 97.605193,240.29249 95.79167,209.71282 95.79167,240.73999 c 0,16.11027 5.02188,18.12406 53.07721,18.12406 l 0,114.56192 c 0,22.91237 0,22.91237 21.42621,22.91237 l 42.8524,0 c 21.42621,0 21.42621,0 21.42621,-22.91237 l 0,-91.64954 c 26.71312,0 16.13949,0 42.85239,0 l 0,91.64954 c 0,22.91237 0,22.91237 21.42621,22.91237 l 42.85241,0 c 21.4262,0 21.4262,0 21.4262,-22.91237 l 0,-114.56192 c 48.05555,0 53.07742,-2.01377 53.07742,-18.12406 0,-31.10174 -1.18487,0.0756 -144.16664,-112.99562 -16.04179,-16.11027 -16.04179,-16.11027 -32.08337,0 z"
     id="path62"
     style="fill:#ffffff;fill-opacity:1"
     inkscape:connector-curvature="0" />
</svg>
