<svg viewBox="0 0 48 48" xmlns="http://www.w3.org/2000/svg">
  <rect fill="#e5e1c7" height="35.999996" rx="3.9999995" width="31.999996" x="8" y="8"/>
  <rect fill="#eae7d1" height="31.999996" rx="1.9999998" width="27.999998" x="10" y="10"/>
  <rect fill="#999999" height="5.9999995" rx=".99999988" width="1.9999998" x="12" y="6"/>
  <rect fill="#999999" height="5.9999995" rx=".99999988" width="1.9999998" x="15.999999" y="6"/>
  <rect fill="#999999" height="5.9999995" rx=".99999988" width="1.9999998" x="19.999998" y="6"/>
  <rect fill="#999999" height="5.9999995" rx=".99999988" width="1.9999998" x="25.999998" y="6"/>
  <rect fill="#999999" height="5.9999995" rx=".99999988" width="1.9999998" x="29.999998" y="6"/>
  <rect fill="#999999" height="5.9999995" rx=".99999988" width="1.9999998" x="33.999996" y="6"/>
  <path d="m12 15.999999h23.999998v1.9999998h-23.999998z" fill="#999999"/>
  <path d="m12 20.000002h23.999998v1.9999998h-23.999998z" fill="#999999"/>
  <path d="m12 24.000002h15.999998v1.9999998h-15.999998z" fill="#999999"/>
  <path d="m12 28.000002h15.999998v1.9999998h-15.999998z" fill="#999999"/>
  <path d="m12 32h23.999998v1.9999998h-23.999998z" fill="#999999"/>
  <path d="m12 36h23.999998v1.9999998h-23.999998z" fill="#999999"/>
  <path d="m45.999996 30.000002h-7.999999v-8h-7.999999v8h-7.999999v7.999999h7.999999v7.999999h7.999999v-7.999999h7.999999z" fill="#859900"/>
</svg>
