<svg height="48" viewBox="0 0 48 48" width="48" xmlns="http://www.w3.org/2000/svg">
  <path d="m6.285156 4c-1.140625 0-2.285156 1.144531-2.285156 2.285156v35.492188c0 1.078125 1.144531 2.222656 2.222656 2.222656h35.554688c1.082031 0 2.222656-1.144531 2.222656-2.222656v-35.554688c0-1.078125-1.140625-2.222656-2.222656-2.222656z" fill="#c19553"/>
  <g fill="#ffffff">
    <path d="m6.285156 4c-1.140625 0-2.285156 1.144531-2.285156 2.285156v11.714844c4.445312 0 35.554688 0 40 0v-11.777344c0-1.078125-1.140625-2.222656-2.222656-2.222656z" fill-opacity=".196"/>
    <path d="m20 8v18h8v-18z" fill-opacity=".392"/>
  </g>
  <g fill-rule="evenodd" transform="matrix(.49999998 0 0 .49999998 24 24)">
    <path d="m44 24c0 11.046875-8.953125 20-20 20-11.046875 0-20-8.953125-20-20 0-11.046875 8.953125-20 20-20 11.046875 0 20 8.953125 20 20z" fill="#dc322f"/>
    <path d="m14.011719 14v3.332031c-.07422.9375.238281 1.890625.941406 2.539063l4.273437 4.203125-4.273437 4.203125c-.628906.625-.941406 1.507812-.941406 2.390625v3.332031h3.332031c.878906 0 1.761719-.316406 2.386719-.941406l4.273437-4.277344 4.273438 4.277344c.625.625 1.507812.941406 2.390625.941406h3.332031v-3.332031c0-.882813-.316406-1.765625-.941406-2.390625l-4.199219-4.203125 4.273437-4.203125c.714844-.664063.867188-1.582032.867188-2.539063v-3.332031h-3.332031c-.800781.02344-1.433594.320312-2.316407 1.085938l-4.347656 4.203124-4.273437-4.203124c-.589844-.609376-1.394531-1.046876-2.242188-1.085938-.035156 0-.113281 0-.144531 0z" fill="#ffffff"/>
    <path d="m14.011719 14v3.332031c-.07422.9375.238281 1.890625.941406 2.539063l4.273437 4.203125-4.273437 4.203125c-.628906.625-.941406 1.507812-.941406 2.390625v3.332031h3.332031c.878906 0 1.761719-.316406 2.386719-.941406l4.273437-4.277344 4.273438 4.277344c.625.625 1.507812.941406 2.390625.941406h3.332031v-3.332031c0-.882813-.316406-1.765625-.941406-2.390625l-4.199219-4.203125 4.273437-4.203125c.714844-.664063.867188-1.582032.867188-2.539063v-3.332031h-3.332031c-.800781.02344-1.433594.320312-2.316407 1.085938l-4.347656 4.203124-4.273437-4.203124c-.589844-.609376-1.394531-1.046876-2.242188-1.085938-.035156 0-.113281 0-.144531 0z" fill="#dc322f" fill-opacity=".10199998"/>
  </g>
</svg>
