<svg height="48" viewBox="0 0 48 48" width="48" xmlns="http://www.w3.org/2000/svg">
  <path d="m6.285156 4c-1.140625 0-2.285156 1.144531-2.285156 2.285156v35.492188c0 1.078125 1.144531 2.222656 2.222656 2.222656h35.554688c1.082031 0 2.222656-1.144531 2.222656-2.222656v-35.554688c0-1.078125-1.140625-2.222656-2.222656-2.222656z" fill="#c19553"/>
  <g fill="#ffffff">
    <path d="m6.285156 4c-1.140625 0-2.285156 1.144531-2.285156 2.285156v11.714844c4.445312 0 35.554688 0 40 0v-11.777344c0-1.078125-1.140625-2.222656-2.222656-2.222656z" fill-opacity=".196"/>
    <path d="m20 8v18h8v-18z" fill-opacity=".392"/>
  </g>
  <path d="m45.972656 35.863521c0 5.594684-4.537889 10.132573-10.132573 10.132573-5.594685 0-10.132573-4.537889-10.132573-10.132573 0-5.594685 4.537888-10.132573 10.132573-10.132573 5.594684 0 10.132573 4.537888 10.132573 10.132573z" fill="#859900" fill-rule="evenodd"/>
  <g fill="#ffffff" fill-opacity=".9020004" transform="matrix(.50662866 0 0 .50662866 23.680995 23.704433)">
    <path d="m35.367188 19.214844c-1.96875-4.390625-6.375-7.214844-11.339844-7.214844-5.078125 0-9.726563 3.089844-11.554688 7.675781l3.851563 1.445313c1.21875-3.066406 4.316406-5.117188 7.703125-5.117188 3.265625 0 6.15625 1.832032 7.496094 4.695313l-2.808594 1.089843 7.183594 4.019532 2.101562-7.609375z"/>
    <path d="m24.027344 32.003906c-3.242188 0-6.191406-1.894531-7.511719-4.738281l2.765625-1.035156-7.105469-3.933594-2.175781 7.410156 2.652344-.996093c1.929687 4.378906 6.441406 7.289062 11.375 7.289062 5.097656 0 9.609375-2.964844 11.5-7.554688l-3.832032-1.480468c-1.257812 3.0625-4.269531 5.039062-7.667968 5.039062z"/>
  </g>
</svg>
