<svg height="48" viewBox="0 0 48 48" width="48" xmlns="http://www.w3.org/2000/svg">
  <path d="m6.285156 4c-1.140625 0-2.285156 1.144531-2.285156 2.285156v35.492188c0 1.078125 1.144531 2.222656 2.222656 2.222656h35.554688c1.082031 0 2.222656-1.144531 2.222656-2.222656v-35.554688c0-1.078125-1.140625-2.222656-2.222656-2.222656z" fill="#c19553"/>
  <g fill="#ffffff">
    <path d="m6.285156 4c-1.140625 0-2.285156 1.144531-2.285156 2.285156v11.714844c4.445312 0 35.554688 0 40 0v-11.777344c0-1.078125-1.140625-2.222656-2.222656-2.222656z" fill-opacity=".196"/>
    <path d="m20 8v18h8v-18z" fill-opacity=".392"/>
  </g>
  <g transform="matrix(.475 0 0 .54285714 25.1 22.114286)">
    <path d="m24 4c6 0 14 0 14 10v6c2 0 6-.0039 6 4v16c0 4-3.84375 4-6 4h-28c-2.15625 0-6 0-6-4v-16c0-4.003906 4-4 6-4v-6c0-10 8-10 14-10zm0 6c-2 0-8 0-8 6v4h16v-4c0-6-6-6-8-6z" fill="#859900"/>
    <path d="m24 28c-2.210938 0-4 1.789062-4 4 0 1.480469.804688 2.746094 2 3.4375v6.5625h4v-6.5625c1.195312-.691406 2-1.957031 2-3.4375 0-2.210938-1.789062-4-4-4z" fill-opacity=".10199998"/>
  </g>
</svg>
