<svg height="512" viewBox="0 0 512 512" width="512" xmlns="http://www.w3.org/2000/svg">
  <text fill="#aaaaaa" x="-1160.48" y="549.52002">
    <tspan fill="#aaaaaa" x="-1160.48" y="549.52002"/>
  </text>
  <text fill="#aaaaaa" transform="scale(4.0128205 .24920128)" x="28.533854" y="1642.2427"/>
  <text fill="#aaaaaa" x="-454.14001" y="393.89001">
    <tspan fill="#aaaaaa" x="-454.14001" y="393.89001"/>
  </text>
  <text fill="#aaaaaa" transform="scale(4.0128205 .24920128)" x="204.54895" y="1017.7161"/>
  <text fill="#aaaaaa" x="-420.76999" y="385.77002">
    <tspan fill="#aaaaaa" x="-420.76999" y="385.77002"/>
  </text>
  <text fill="#aaaaaa" transform="scale(4.0128205 .24920128)" x="212.86891" y="985.11615"/>
  <text fill="#aaaaaa" x="-163.95" y="117.31999">
    <tspan fill="#aaaaaa" x="-163.95" y="117.31999"/>
  </text>
  <text fill="#aaaaaa" transform="scale(4.0128205 .24920128)" x="52.950729" y="304.60962"/>
  <text fill="#aaaaaa" x="-474.79001" y="484.08997">
    <tspan fill="#aaaaaa" x="-474.79001" y="484.08997"/>
  </text>
  <text fill="#aaaaaa" transform="scale(4.0128205 .24920128)" x="199.40898" y="1379.6842"/>
  <text fill="#aaaaaa" x="231.56" y="328.46002">
    <tspan fill="#aaaaaa" x="231.56" y="328.46002"/>
  </text>
  <text fill="#aaaaaa" transform="scale(4.0128205 .24920128)" x="375.42807" y="755.16736"/>
  <text fill="#aaaaaa" x="264.92999" y="320.34003">
    <tspan fill="#aaaaaa" x="264.92999" y="320.34003"/>
  </text>
  <text fill="#aaaaaa" transform="scale(4.0128205 .24920128)" x="383.74805" y="722.56744"/>
  <text fill="#aaaaaa" x="-1157.49" y="509.78003">
    <tspan fill="#aaaaaa" x="-1157.49" y="509.78003"/>
  </text>
  <text fill="#aaaaaa" transform="scale(4.0128205 .24920128)" x="29.27985" y="1482.7535"/>
  <text fill="#aaaaaa" x="-451.14999" y="354.15002">
    <tspan fill="#aaaaaa" x="-451.14999" y="354.15002"/>
  </text>
  <text fill="#aaaaaa" transform="scale(4.0128205 .24920128)" x="205.29895" y="858.23694"/>
  <text fill="#aaaaaa" x="-417.78" y="346.02002">
    <tspan fill="#aaaaaa" x="-417.78" y="346.02002"/>
  </text>
  <text fill="#aaaaaa" transform="scale(4.0128205 .24920128)" x="213.6189" y="825.63696"/>
  <text fill="#aaaaaa" transform="matrix(.8660254 .5 -.5 .8660254 0 0)" x="-1065.35" y="389.69449">
    <tspan fill="#aaaaaa" x="-1065.35" y="389.69449"/>
  </text>
  <text fill="#aaaaaa" transform="matrix(3.4752341 2.0064197 -.12460122 .21581212 0 0)" x="52.239307" y="1000.8642"/>
  <text fill="#aaaaaa" transform="matrix(.8660254 .5 -.5 .8660254 0 0)" x="-359.01001" y="234.06454">
    <tspan fill="#aaaaaa" x="-359.01001" y="234.06454"/>
  </text>
  <text fill="#aaaaaa" transform="matrix(3.4752341 2.0064197 -.12460122 .21581212 0 0)" x="228.25757" y="376.35034"/>
  <text fill="#aaaaaa" transform="matrix(.8660254 .5 -.5 .8660254 0 0)" x="-325.63" y="225.94449">
    <tspan fill="#aaaaaa" x="-325.63" y="225.94449"/>
  </text>
  <text fill="#aaaaaa" transform="matrix(3.4752341 2.0064197 -.12460122 .21581212 0 0)" x="236.5775" y="343.75055"/>
  <text fill="#aaaaaa" transform="matrix(.8660254 .5 -.5 .8660254 0 0)" x="-68.82" y="-42.495487">
    <tspan fill="#aaaaaa" x="-68.82" y="-42.495487"/>
  </text>
  <text fill="#aaaaaa" transform="matrix(3.4752341 2.0064197 -.12460122 .21581212 0 0)" x="76.659073" y="-336.75266"/>
  <text fill="#aaaaaa" x="729.64001" y="231.35997">
    <tspan fill="#aaaaaa" x="729.64001" y="231.35997"/>
  </text>
  <text fill="#aaaaaa" transform="scale(4.0128205 .24920128)" x="378.90805" y="579.25812"/>
  <text fill="#aaaaaa" x="1310.91" y="151.35997">
    <tspan fill="#aaaaaa" x="1310.91" y="151.35997"/>
  </text>
  <text fill="#aaaaaa" transform="scale(4.0128205 .24920128)" x="523.75732" y="258.21997"/>
  <text fill="#aaaaaa" x="239.33" y="-29.900009">
    <tspan fill="#aaaaaa" x="239.33" y="-29.900009"/>
  </text>
  <text fill="#aaaaaa" transform="scale(4.0128205 .24920128)" x="256.71869" y="-469.1264"/>
  <text fill="#aaaaaa" x="1337.38" y="-246.37001">
    <tspan fill="#aaaaaa" x="1337.38" y="-246.37001"/>
  </text>
  <text fill="#aaaaaa" transform="scale(4.0128205 .24920128)" x="530.3573" y="-1337.802"/>
  <text fill="#aaaaaa" x="1918.65" y="-326.37">
    <tspan fill="#aaaaaa" x="1918.65" y="-326.37"/>
  </text>
  <text fill="#aaaaaa" transform="scale(4.0128205 .24920128)" x="675.20654" y="-1658.8303"/>
  <text fill="#aaaaaa" x="1529.53" y="-798.77002">
    <tspan fill="#aaaaaa" x="1529.53" y="-798.77002"/>
  </text>
  <text fill="#aaaaaa" transform="scale(4.0128205 .24920128)" x="578.237" y="-3554.4807"/>
  <text fill="#aaaaaa" x="2110.79" y="-878.78003">
    <tspan fill="#aaaaaa" x="2110.79" y="-878.78003"/>
  </text>
  <text fill="#aaaaaa" transform="scale(4.0128205 .24920128)" x="723.0863" y="-3875.519"/>
  <text fill="#aaaaaa" x="277.98999" y="535.94006">
    <tspan fill="#aaaaaa" x="277.98999" y="535.94006"/>
  </text>
  <path d="m256 62.934176l0 55.161484c-91.39476 0-165.485081 74.09032-165.485081 165.48508 0 91.39507 74.090321 165.48508 165.485081 165.48508 91.39508 0 165.48508-74.09001 165.48508-165.48509l-55.1618 0c0 60.92995-49.39333 110.32329-110.32328 110.32329-60.92995 0-110.32328-49.39334-110.32328-110.32328 0-60.92994 49.39333-110.32328 110.32328-110.32328l0 55.16181 137.90419-82.74271-137.90419-82.742384z" fill="#aaaaaa" overflow="visible"/>
</svg>
