/* XPM */
static char * arrow_right_xpm[] = {
"6 9 28 1",
" 	c None",
".	c #676B75",
"+	c #8C8E96",
"@	c #DFDFE0",
"#	c #E3E3E3",
"$	c #9C9DA4",
"%	c #5C616C",
"&	c #81838C",
"*	c #DDDDDE",
"=	c #A4A5AB",
"-	c #787C85",
";	c #D8D9D9",
">	c #B0B2B6",
",	c #5E636D",
"'	c #71757F",
")	c #D4D5D6",
"!	c #95999E",
"~	c #7E828A",
"{	c #AEB0B5",
"]	c #5D626D",
"^	c #D3D4D5",
"/	c #A9AAB0",
"(	c #777B83",
"_	c #D8D8D9",
":	c #9FA1A7",
"<	c #DCDCDD",
"[	c #6B6F7A",
"}	c #DFDFDF",
".+@###",
"$%&*##",
"#=%-;#",
"##>,')",
"###!%~",
"##{]'^",
"#/%(_#",
":%~<##",
"[+}###"};
