/* XPM */
static char * checkbox_unchecked_xpm[] = {
"16 16 18 1",
" 	c None",
".	c #A3A3A3",
"+	c #A7A7A7",
"@	c #AEAEAE",
"#	c #B0B0B0",
"$	c #AEAEAE",
"%	c #AFAFAF",
"&	c #AFAFAF",
"*	c #AFAFAF",
"=	c #AFAFAF",
"-	c #ADADAD",
";	c #AEAEAE",
">	c #AFAFAF",
",	c #DCDCDC",
"'	c #DCDCDC",
")	c #DDDDDD",
"!	c #FDFDFD",
"~	c #FFFFFF",
"                ",
"  $&--------&#  ",
" %)!~~~~~~~~!'# ",
" *!~~~~~~~~~~!* ",
" ;~~~~~~~~~~~~; ",
" ;~~~~~~~~~~~~; ",
" ;~~~~~~~~~~~~; ",
" ;~~~~~~~~~~~~; ",
" ;~~~~~~~~~~~~; ",
" ;~~~~~~~~~~~~; ",
" ;~~~~~~~~~~~~; ",
" ;~~~~~~~~~~~~; ",
" *!~~~~~~~~~~!* ",
" $'!~~~~~~~~!,@ ",
"  #=>>>>>>>>=@  ",
"                "};
