<svg height="24" viewBox="0 0 6.77 6.77" width="24" xmlns="http://www.w3.org/2000/svg">
 <path d="m1.748 2.232c-.654 0-1.184.524-1.184 1.172 0 .648.529 1.172 1.184 1.172.347 0 .669-.052.886-.287v1.084c0 .163.118.271.282.271.164 0 .282-.108.282-.271v-2.89c0-.163-.116-.252-.28-.252-.164 0-.274.089-.284.252l-.008.128.008.413h.376c-.204.279-.348.453-.564.722-.224-.272-.341-.45-.564-.722h.376v-.722c-.119-.039-.378-.071-.51-.071" fill="#fdfdfd"/>
 <path d="m3.848 1.129c-.164 0-.274.108-.274.271v2.89c0 .163.109.287.274.287.164 0 .277-.125.291-.287l.008-.093-.008-.449h-.376c.212-.261.352-.462.564-.722.223.273.341.45.564.722h-.376v.722c.119.039.378.106.51.106.654 0 1.184-.524 1.184-1.172 0-.648-.529-1.172-1.184-1.172-.347 0-.669.197-.886.432v-1.264c0-.163-.127-.271-.291-.271z" fill="#fdfdfd"/>
</svg>
