<?xml version="1.0" encoding="UTF-8" standalone="no"?>
<svg
   xmlns:dc="http://purl.org/dc/elements/1.1/"
   xmlns:cc="http://creativecommons.org/ns#"
   xmlns:rdf="http://www.w3.org/1999/02/22-rdf-syntax-ns#"
   xmlns:svg="http://www.w3.org/2000/svg"
   xmlns="http://www.w3.org/2000/svg"
   xmlns:sodipodi="http://sodipodi.sourceforge.net/DTD/sodipodi-0.dtd"
   xmlns:inkscape="http://www.inkscape.org/namespaces/inkscape"
   height="512"
   viewBox="0 0 512 512"
   width="512"
   version="1.1"
   id="svg2"
   inkscape:version="0.91 r13725"
   sodipodi:docname="cs-input-method.svg">
  <metadata
     id="metadata67">
    <rdf:RDF>
      <cc:Work
         rdf:about="">
        <dc:format>image/svg+xml</dc:format>
        <dc:type
           rdf:resource="http://purl.org/dc/dcmitype/StillImage" />
      </cc:Work>
    </rdf:RDF>
  </metadata>
  <sodipodi:namedview
     pagecolor="#ffffff"
     bordercolor="#666666"
     borderopacity="1"
     objecttolerance="10"
     gridtolerance="10"
     guidetolerance="10"
     inkscape:pageopacity="0"
     inkscape:pageshadow="2"
     inkscape:window-width="640"
     inkscape:window-height="480"
     id="namedview65"
     showgrid="false"
     inkscape:zoom="0.4609375"
     inkscape:cx="256"
     inkscape:cy="256"
     inkscape:current-layer="svg2" />
  <defs
     id="defs4">
    <clipPath
       id="clipPath-572739784">
      <g
         transform="translate(0,-1004.3622)"
         id="g7">
        <path
           d="m -24,13 c 0,1.105 -0.672,2 -1.5,2 -0.828,0 -1.5,-0.895 -1.5,-2 0,-1.105 0.672,-2 1.5,-2 0.828,0 1.5,0.895 1.5,2 z"
           transform="matrix(15.333333,0,0,11.5,414.99999,878.8622)"
           style="fill:#1890d0"
           id="path9" />
      </g>
    </clipPath>
  </defs>
  <path
     fill-rule="evenodd"
     fill="#db1623"
     d="m471.95 253.05c0 120.9-98.006 218.91-218.91 218.91s-218.91-98.006-218.91-218.91 98.006-218.91 218.91-218.91 218.91 98.006 218.91 218.91"
     style="fill:#d45500"
     id="path11" />
  <path
     d="m256 1c-140.83 0-255 114.17-255 255s114.17 255 255 255 255-114.17 255-255-114.17-255-255-255m8.827 44.931c120.9 0 218.9 98 218.9 218.9s-98 218.9-218.9 218.9-218.93-98-218.93-218.9 98.03-218.9 218.93-218.9"
     fill-rule="evenodd"
     fill-opacity=".067"
     id="path13" />
  <path
     d="m256 4.43c-138.94 0-251.57 112.63-251.57 251.57s112.63 251.57 251.57 251.57 251.57-112.63 251.57-251.57-112.63-251.57-251.57-251.57m5.885 38.556c120.9 0 218.9 98 218.9 218.9s-98 218.9-218.9 218.9-218.93-98-218.93-218.9 98.03-218.9 218.93-218.9"
     fill-rule="evenodd"
     fill-opacity=".129"
     id="path15" />
  <path
     d="m256 8.36c-136.77 0-247.64 110.87-247.64 247.64s110.87 247.64 247.64 247.64 247.64-110.87 247.64-247.64-110.87-247.64-247.64-247.64m2.942 31.691c120.9 0 218.9 98 218.9 218.9s-98 218.9-218.9 218.9-218.93-98-218.93-218.9 98.03-218.9 218.93-218.9"
     fill-rule="evenodd"
     fill-opacity=".129"
     id="path17" />
  <path
     d="m253.04 7.86c-135.42 0-245.19 109.78-245.19 245.19 0 135.42 109.78 245.19 245.19 245.19 135.42 0 245.19-109.78 245.19-245.19 0-135.42-109.78-245.19-245.19-245.19zm0 26.297c120.9 0 218.9 98 218.9 218.9s-98 218.9-218.9 218.9-218.93-98-218.93-218.9 98.03-218.9 218.93-218.9z"
     stroke-opacity=".31"
     fill-rule="evenodd"
     stroke="#000"
     stroke-width="4.904"
     fill="#fff"
     id="path19" />
  <g
     transform="matrix(10.308445,0,0,8.8029375,13.215417,33.216362)"
     id="g21"
     style="fill:#ffffff;fill-opacity:1">
    <g
       clip-path="url(#clipPath-572739784)"
       id="g23"
       style="fill:#ffffff;fill-opacity:1">
      <g
         id="g25"
         style="fill:#ffffff;fill-opacity:1">
        <path
           d="m 8,13.996 2,0 c 0.551,0 1,0.449 1,1 l 0,2 c 0,0.555 -0.449,1 -1,1 l -2,0 c -0.551,0 -1,-0.445 -1,-1 l 0,-2 c 0,-0.551 0.449,-1 1,-1 m 0,0"
           style="fill:#ffffff;fill-opacity:1"
           id="path27" />
        <path
           d="m 14,13.996 2,0 c 0.551,0 1,0.449 1,1 l 0,2 c 0,0.555 -0.449,1 -1,1 l -2,0 c -0.551,0 -1,-0.445 -1,-1 l 0,-2 c 0,-0.551 0.449,-1 1,-1 m 0,0"
           style="fill:#ffffff;fill-opacity:1"
           id="path29" />
        <path
           d="m 20,13.996 2,0 c 0.551,0 1,0.449 1,1 l 0,2 c 0,0.555 -0.449,1 -1,1 l -2,0 c -0.551,0 -1,-0.445 -1,-1 l 0,-2 c 0,-0.551 0.449,-1 1,-1 m 0,0"
           style="fill:#ffffff;fill-opacity:1"
           id="path31" />
        <path
           d="m 26,13.996 2,0 c 0.551,0 1,0.449 1,1 l 0,2 c 0,0.555 -0.449,1 -1,1 l -2,0 c -0.551,0 -1,-0.445 -1,-1 l 0,-2 c 0,-0.551 0.449,-1 1,-1 m 0,0"
           style="fill:#ffffff;fill-opacity:1"
           id="path33" />
        <path
           d="m 32,13.996 2,0 c 0.551,0 1,0.449 1,1 l 0,2 c 0,0.555 -0.449,1 -1,1 l -2,0 c -0.551,0 -1,-0.445 -1,-1 l 0,-2 c 0,-0.551 0.449,-1 1,-1 m 0,0"
           style="fill:#ffffff;fill-opacity:1"
           id="path35" />
        <path
           d="m 38,13.996 2,0 c 0.551,0 1,0.449 1,1 l 0,2 c 0,0.555 -0.449,1 -1,1 l -2,0 c -0.551,0 -1,-0.445 -1,-1 l 0,-2 c 0,-0.551 0.449,-1 1,-1 m 0,0"
           style="fill:#ffffff;fill-opacity:1"
           id="path37" />
        <path
           d="m 8,19.996 2,0 c 0.551,0 1,0.449 1,1 l 0,2 c 0,0.555 -0.449,1 -1,1 l -2,0 c -0.551,0 -1,-0.445 -1,-1 l 0,-2 c 0,-0.551 0.449,-1 1,-1 m 0,0"
           style="fill:#ffffff;fill-opacity:1"
           id="path39" />
        <path
           d="m 14,19.996 2,0 c 0.551,0 1,0.449 1,1 l 0,2 c 0,0.555 -0.449,1 -1,1 l -2,0 c -0.551,0 -1,-0.445 -1,-1 l 0,-2 c 0,-0.551 0.449,-1 1,-1 m 0,0"
           style="fill:#ffffff;fill-opacity:1"
           id="path41" />
        <path
           d="m 20,19.996 2,0 c 0.551,0 1,0.449 1,1 l 0,2 c 0,0.555 -0.449,1 -1,1 l -2,0 c -0.551,0 -1,-0.445 -1,-1 l 0,-2 c 0,-0.551 0.449,-1 1,-1 m 0,0"
           style="fill:#ffffff;fill-opacity:1"
           id="path43" />
        <path
           d="m 26,19.996 2,0 c 0.551,0 1,0.449 1,1 l 0,2 c 0,0.555 -0.449,1 -1,1 l -2,0 c -0.551,0 -1,-0.445 -1,-1 l 0,-2 c 0,-0.551 0.449,-1 1,-1 m 0,0"
           style="fill:#ffffff;fill-opacity:1"
           id="path45" />
        <path
           d="m 32,19.996 2,0 c 0.551,0 1,0.449 1,1 l 0,2 c 0,0.555 -0.449,1 -1,1 l -2,0 c -0.551,0 -1,-0.445 -1,-1 l 0,-2 c 0,-0.551 0.449,-1 1,-1 m 0,0"
           style="fill:#ffffff;fill-opacity:1"
           id="path47" />
        <path
           d="m 38,19.996 2,0 c 0.551,0 1,0.449 1,1 l 0,2 c 0,0.555 -0.449,1 -1,1 l -2,0 c -0.551,0 -1,-0.445 -1,-1 l 0,-2 c 0,-0.551 0.449,-1 1,-1 m 0,0"
           style="fill:#ffffff;fill-opacity:1"
           id="path49" />
        <path
           d="m 8,25.996 2,0 c 0.551,0 1,0.449 1,1 l 0,2 c 0,0.555 -0.449,1 -1,1 l -2,0 c -0.551,0 -1,-0.445 -1,-1 l 0,-2 c 0,-0.551 0.449,-1 1,-1 m 0,0"
           style="fill:#ffffff;fill-opacity:1"
           id="path51" />
        <path
           d="m 14,25.996 2,0 c 0.551,0 1,0.449 1,1 l 0,2 c 0,0.555 -0.449,1 -1,1 l -2,0 c -0.551,0 -1,-0.445 -1,-1 l 0,-2 c 0,-0.551 0.449,-1 1,-1 m 0,0"
           style="fill:#ffffff;fill-opacity:1"
           id="path53" />
        <path
           d="m 20,25.996 2,0 c 0.551,0 1,0.449 1,1 l 0,2 c 0,0.555 -0.449,1 -1,1 l -2,0 c -0.551,0 -1,-0.445 -1,-1 l 0,-2 c 0,-0.551 0.449,-1 1,-1 m 0,0"
           style="fill:#ffffff;fill-opacity:1"
           id="path55" />
        <path
           d="m 26,25.996 2,0 c 0.551,0 1,0.449 1,1 l 0,2 c 0,0.555 -0.449,1 -1,1 l -2,0 c -0.551,0 -1,-0.445 -1,-1 l 0,-2 c 0,-0.551 0.449,-1 1,-1 m 0,0"
           style="fill:#ffffff;fill-opacity:1"
           id="path57" />
        <path
           d="m 32,25.996 2,0 c 0.551,0 1,0.449 1,1 l 0,2 c 0,0.555 -0.449,1 -1,1 l -2,0 c -0.551,0 -1,-0.445 -1,-1 l 0,-2 c 0,-0.551 0.449,-1 1,-1 m 0,0"
           style="fill:#ffffff;fill-opacity:1"
           id="path59" />
        <path
           d="m 38,25.996 2,0 c 0.551,0 1,0.449 1,1 l 0,2 c 0,0.555 -0.449,1 -1,1 l -2,0 c -0.551,0 -1,-0.445 -1,-1 l 0,-2 c 0,-0.551 0.449,-1 1,-1 m 0,0"
           style="fill:#ffffff;fill-opacity:1"
           id="path61" />
        <path
           d="m 14,31.996 20,0 c 0.551,0 1,0.449 1,1 l 0,2 c 0,0.555 -0.449,1 -1,1 l -20,0 c -0.551,0 -1,-0.445 -1,-1 l 0,-2 c 0,-0.551 0.449,-1 1,-1 m 0,0"
           style="fill:#ffffff;fill-opacity:1"
           id="path63" />
      </g>
    </g>
  </g>
</svg>
