<?xml version="1.0" encoding="UTF-8" standalone="no"?>
<svg
   xmlns:dc="http://purl.org/dc/elements/1.1/"
   xmlns:cc="http://creativecommons.org/ns#"
   xmlns:rdf="http://www.w3.org/1999/02/22-rdf-syntax-ns#"
   xmlns:svg="http://www.w3.org/2000/svg"
   xmlns="http://www.w3.org/2000/svg"
   xmlns:sodipodi="http://sodipodi.sourceforge.net/DTD/sodipodi-0.dtd"
   xmlns:inkscape="http://www.inkscape.org/namespaces/inkscape"
   height="512"
   viewBox="0 0 512 512"
   width="512"
   id="svg2"
   version="1.1"
   inkscape:version="0.91 r13725"
   sodipodi:docname="pasystray-symbolic.svg">
  <metadata
     id="metadata16">
    <rdf:RDF>
      <cc:Work
         rdf:about="">
        <dc:format>image/svg+xml</dc:format>
        <dc:type
           rdf:resource="http://purl.org/dc/dcmitype/StillImage" />
      </cc:Work>
    </rdf:RDF>
  </metadata>
  <defs
     id="defs14" />
  <sodipodi:namedview
     pagecolor="#ffffff"
     bordercolor="#666666"
     borderopacity="1"
     objecttolerance="10"
     gridtolerance="10"
     guidetolerance="10"
     inkscape:pageopacity="0"
     inkscape:pageshadow="2"
     inkscape:window-width="640"
     inkscape:window-height="480"
     id="namedview12"
     showgrid="false"
     inkscape:zoom="0.4609375"
     inkscape:cx="256"
     inkscape:cy="256"
     inkscape:current-layer="svg2" />
  <g
     fill="#ffffff"
     transform="matrix(1.4345521 0 0 1.4345521 -729.53853 -1132.0153)"
     id="g4"
     style="fill:#fefefe;fill-opacity:1">
    <circle
       cx="-1"
       cy="863.612"
       r="23"
       transform="matrix(1.676363 0 0 1.676363 688.6772 -480.168)"
       id="circle6"
       style="fill:#fefefe;fill-opacity:1" />
    <path
       d="m666.92273 892.01313c-33.41788 8.8724-58.06252 39.3337-58.0625 75.53129 0 36.19748 24.64463 66.69008 58.0625 75.56248-24.10776-10.8192-41.4375-40.5874-41.4375-75.56248-.00001-34.97499 17.32973-64.71209 41.4375-75.53129zm40.15625 0c24.10777 10.8192 41.4375 40.5562 41.4375 75.53129 0 34.97508-17.32974 64.74328-41.4375 75.56248 33.41788-8.8724 58.06252-39.365 58.0625-75.56248 0-36.19749-24.64461-66.65889-58.0625-75.53129z"
       id="path8"
       style="fill:#fefefe;fill-opacity:1" />
    <path
       d="m655.64705 849.58672c-52.18504 13.85506-90.66987 61.42313-90.66984 117.9489 0 56.52568 38.48482 104.14268 90.66984 117.99768-37.64645-16.8952-64.7084-63.3809-64.7084-117.99768-.00002-54.61657 27.06194-101.05374 64.7084-117.9489zm62.70761 0c37.64646 16.89516 64.7084 63.33217 64.7084 117.9489 0 54.61678-27.06195 101.10248-64.7084 117.99768 52.18504-13.855 90.66987-61.472 90.66984-117.99768 0-56.52561-38.48478-104.09384-90.66984-117.9489z"
       id="path10"
       style="fill:#fefefe;fill-opacity:1" />
  </g>
</svg>
