<svg height="48" viewBox="0 0 48 48" width="48" xmlns="http://www.w3.org/2000/svg">
  <path d="m6.285156 4c-1.140625 0-2.285156 1.144531-2.285156 2.285156v35.492188c0 1.078125 1.144531 2.222656 2.222656 2.222656h35.554688c1.082031 0 2.222656-1.144531 2.222656-2.222656v-35.554688c0-1.078125-1.140625-2.222656-2.222656-2.222656z" fill="#c19553"/>
  <g fill="#ffffff">
    <path d="m6.285156 4c-1.140625 0-2.285156 1.144531-2.285156 2.285156v11.714844c4.445312 0 35.554688 0 40 0v-11.777344c0-1.078125-1.140625-2.222656-2.222656-2.222656z" fill-opacity=".196"/>
    <path d="m20 8v18h8v-18z" fill-opacity=".392"/>
  </g>
  <path d="m46 36c0 5.521485-4.478516 10-10 10-5.521485 0-10-4.478515-10-10 0-5.521485 4.478515-10 10-10 5.521484 0 10 4.478515 10 10z" fill="#dc322f" fill-rule="evenodd"/>
  <g fill="#ffffff" fill-opacity=".9020004" transform="matrix(-.5 0 0 -.5 48 49)">
    <path d="m28 40h-8v-16h8z"/>
    <path d="m28 16c0 2.203125-1.796875 4-4 4-2.203125 0-4-1.796875-4-4 0-2.203125 1.796875-4 4-4 2.203125 0 4 1.796875 4 4z" fill-rule="evenodd"/>
  </g>
</svg>
