<svg height="48" viewBox="0 0 48 48" width="48" xmlns="http://www.w3.org/2000/svg">
  <path d="m6.285156 4c-1.140625 0-2.285156 1.144531-2.285156 2.285156v35.492188c0 1.078125 1.144531 2.222656 2.222656 2.222656h35.554688c1.082031 0 2.222656-1.144531 2.222656-2.222656v-35.554688c0-1.078125-1.140625-2.222656-2.222656-2.222656z" fill="#c19553"/>
  <g fill="#ffffff">
    <path d="m6.285156 4c-1.140625 0-2.285156 1.144531-2.285156 2.285156v11.714844c4.445312 0 35.554688 0 40 0v-11.777344c0-1.078125-1.140625-2.222656-2.222656-2.222656z" fill-opacity=".196"/>
    <path d="m20 8v18h8v-18z" fill-opacity=".392"/>
  </g>
  <path d="m9.4312279 3.0000086c-.2390583 1.9796734-1.3806424 2.4456929-2.9437463 1.2124984.5367295 1.9204636-.3402055 2.7848964-2.2562471 2.2437472 1.2308047 1.5688802.7522832 2.6979662-1.2249985 2.9312462 1.7374982.9784486 1.7312477 2.2090406-.00626 3.1812496 1.9796754.23906 2.4456907 1.380638 1.2124987 2.943756 1.9204652-.53674 2.7848889.34018 2.2437473 2.256237 1.5688827-1.230819 2.6979567-.752299 2.931251 1.224998.978438-1.737558 2.209029-1.731237 3.181246.0063.239039-1.979698 1.380626-2.445697 2.943746-1.212499-.536752-1.920478.340186-2.784896 2.256246-2.243757-1.230815-1.568952-.75228-2.697991 1.225013-2.931291-1.737528-.978473-1.731251-2.209041.0063-3.1812596-1.979767-.239098-2.445746-1.380666-1.212558-2.9437903-1.920493.5367453-2.784883-.3401876-2.243746-2.256247-1.5689 1.2308283-2.697947.752295-2.931246-1.2249985-.978448 1.7374938-2.209049 1.7312478-3.1812461-.00624z" fill="#f1c40f" transform="matrix(1.2499963 0 0 1.2499936 22.250041 22.25007)"/>
</svg>
