<svg height="48" viewBox="0 0 48 48" width="48" xmlns="http://www.w3.org/2000/svg">
  <path d="m6.285156 4c-1.140625 0-2.285156 1.144531-2.285156 2.285156v35.492188c0 1.078125 1.144531 2.222656 2.222656 2.222656h35.554688c1.082031 0 2.222656-1.144531 2.222656-2.222656v-35.554688c0-1.078125-1.140625-2.222656-2.222656-2.222656z" fill="#c19553"/>
  <g fill="#ffffff">
    <path d="m6.285156 4c-1.140625 0-2.285156 1.144531-2.285156 2.285156v11.714844c4.445312 0 35.554688 0 40 0v-11.777344c0-1.078125-1.140625-2.222656-2.222656-2.222656z" fill-opacity=".196"/>
    <path d="m20 8v18h8v-18z" fill-opacity=".392"/>
  </g>
  <path d="m37.547879 28.000006c-1.489586-.0059-2.327206 5.259923-3.535927 6.128715-1.208244.86845-6.466665-.01857-6.932276 1.392889-.465789 1.411997 4.291126 3.830886 4.745585 5.246552.454281 1.415102-1.992178 6.132814-.79093 7.010877 1.201723.878405 4.977437-2.884775 6.467022-2.878639 1.489005.0059 5.212477 3.84026 6.420498 2.971498 1.208498-.869104-1.210567-5.645429-.744406-7.057306.465969-1.411313 5.246764-3.785139 4.792111-5.200122-.454832-1.415548-5.730791-.560603-6.932276-1.43932-1.201024-.878375-2.000397-6.169394-3.489401-6.175144z" fill="#f1c40f"/>
</svg>
