<svg height="512" viewBox="0 0 512 512" width="512" xmlns="http://www.w3.org/2000/svg">
  <text x="-1160.48" y="549.52002">
    <tspan x="-1160.48" y="549.52002"/>
  </text>
  <text transform="scale(4.0128205 .24920128)" x="28.533854" y="1642.2427"/>
  <text x="-454.14001" y="393.89001">
    <tspan x="-454.14001" y="393.89001"/>
  </text>
  <text transform="scale(4.0128205 .24920128)" x="204.54895" y="1017.7161"/>
  <text x="-420.76999" y="385.77002">
    <tspan x="-420.76999" y="385.77002"/>
  </text>
  <text transform="scale(4.0128205 .24920128)" x="212.86891" y="985.11615"/>
  <text x="-163.95" y="117.31999">
    <tspan x="-163.95" y="117.31999"/>
  </text>
  <text transform="scale(4.0128205 .24920128)" x="52.950729" y="304.60962"/>
  <text x="-474.79001" y="484.08997">
    <tspan x="-474.79001" y="484.08997"/>
  </text>
  <text transform="scale(4.0128205 .24920128)" x="199.40898" y="1379.6842"/>
  <text x="231.56" y="328.46002">
    <tspan x="231.56" y="328.46002"/>
  </text>
  <text transform="scale(4.0128205 .24920128)" x="375.42807" y="755.16736"/>
  <text x="264.92999" y="320.34003">
    <tspan x="264.92999" y="320.34003"/>
  </text>
  <text transform="scale(4.0128205 .24920128)" x="383.74805" y="722.56744"/>
  <text x="-1157.49" y="509.78003">
    <tspan x="-1157.49" y="509.78003"/>
  </text>
  <text transform="scale(4.0128205 .24920128)" x="29.27985" y="1482.7535"/>
  <text x="-451.14999" y="354.15002">
    <tspan x="-451.14999" y="354.15002"/>
  </text>
  <text transform="scale(4.0128205 .24920128)" x="205.29895" y="858.23694"/>
  <text x="-417.78" y="346.02002">
    <tspan x="-417.78" y="346.02002"/>
  </text>
  <text transform="scale(4.0128205 .24920128)" x="213.6189" y="825.63696"/>
  <text transform="matrix(.8660254 .5 -.5 .8660254 0 0)" x="-1065.35" y="389.69449">
    <tspan x="-1065.35" y="389.69449"/>
  </text>
  <text transform="matrix(3.4752341 2.0064197 -.12460122 .21581212 0 0)" x="52.239307" y="1000.8642"/>
  <text transform="matrix(.8660254 .5 -.5 .8660254 0 0)" x="-359.01001" y="234.06454">
    <tspan x="-359.01001" y="234.06454"/>
  </text>
  <text transform="matrix(3.4752341 2.0064197 -.12460122 .21581212 0 0)" x="228.25757" y="376.35034"/>
  <text transform="matrix(.8660254 .5 -.5 .8660254 0 0)" x="-325.63" y="225.94449">
    <tspan x="-325.63" y="225.94449"/>
  </text>
  <text transform="matrix(3.4752341 2.0064197 -.12460122 .21581212 0 0)" x="236.5775" y="343.75055"/>
  <text transform="matrix(.8660254 .5 -.5 .8660254 0 0)" x="-68.82" y="-42.495487">
    <tspan x="-68.82" y="-42.495487"/>
  </text>
  <text transform="matrix(3.4752341 2.0064197 -.12460122 .21581212 0 0)" x="76.659073" y="-336.75266"/>
  <text x="729.64001" y="231.35997">
    <tspan x="729.64001" y="231.35997"/>
  </text>
  <text transform="scale(4.0128205 .24920128)" x="378.90805" y="579.25812"/>
  <text x="1310.91" y="151.35997">
    <tspan x="1310.91" y="151.35997"/>
  </text>
  <text transform="scale(4.0128205 .24920128)" x="523.75732" y="258.21997"/>
  <text x="239.33" y="-29.900009">
    <tspan x="239.33" y="-29.900009"/>
  </text>
  <text transform="scale(4.0128205 .24920128)" x="256.71869" y="-469.1264"/>
  <text x="1337.38" y="-246.37001">
    <tspan x="1337.38" y="-246.37001"/>
  </text>
  <text transform="scale(4.0128205 .24920128)" x="530.3573" y="-1337.802"/>
  <text x="1918.65" y="-326.37">
    <tspan x="1918.65" y="-326.37"/>
  </text>
  <text transform="scale(4.0128205 .24920128)" x="675.20654" y="-1658.8303"/>
  <text x="1529.53" y="-798.77002">
    <tspan x="1529.53" y="-798.77002"/>
  </text>
  <text transform="scale(4.0128205 .24920128)" x="578.237" y="-3554.4807"/>
  <text x="2110.79" y="-878.78003">
    <tspan x="2110.79" y="-878.78003"/>
  </text>
  <text transform="scale(4.0128205 .24920128)" x="723.0863" y="-3875.519"/>
  <text x="277.98999" y="535.94006">
    <tspan x="277.98999" y="535.94006"/>
  </text>
  <path d="m258 92.265625c-.29198 14.175035.57282 28.578095-.41211 42.617185-4.3636 3.02698-10.3514.0784-15.37349 1.59729-57.14532 5.07896-109.00604 47.40447-124.74111 102.70123-15.91693 52.59338 1.11069 113.7289 42.99154 149.6068 38.5621 34.18362 95.9964 45.75089 144.43916 27.57537 47.02972-16.88861 84.22218-59.33218 92.93781-108.78538 1.59479-8.29743 2.40463-16.73307 2.57812-25.17773-14.9362 0-29.87239 0-44.80859 0-.0164 47.22762-38.509 90.89633-85.29435 96.6688-41.17967 6.21369-85.16153-16.00066-103.35867-53.80798-17.98102-35.55894-12.70652-81.76906 14.85866-111.3293 18.88791-20.72246 46.90744-34.3419 75.07756-32.63503 3.40327 4.49801-.34602 10.57143 1.10547 15.74023 0 10.3431 0 20.6862 0 31.0293 38.70359-23.2234 77.4094-46.44311 116.11328-69.66602-38.70394-23.22347-77.40963-46.44401-116.11328-69.667968 0 1.177734 0 2.355469 0 3.533203z" fill="#aaaaaa" fill-opacity=".94117647" overflow="visible"/>
</svg>
